<?xml version="1.0" encoding="UTF-8" standalone="no"?>
<!DOCTYPE svg PUBLIC "-//W3C//DTD SVG 1.1//EN" "http://www.w3.org/Graphics/SVG/1.1/DTD/svg11.dtd">
<svg version="1.1" xmlns="http://www.w3.org/2000/svg" xmlns:xlink="http://www.w3.org/1999/xlink" preserveAspectRatio="xMidYMid meet" viewBox="0 0 2321 2321" width="2321" height="2321"><defs><path d="M561.96 890.79C555.94 890.79 525.82 890.79 471.61 890.79L471.61 1432.03C525.85 1432.03 555.99 1432.03 562.01 1432.03C582.12 1432.03 602.27 1424.51 622.37 1409.49C642.47 1394.47 652.52 1371.93 652.52 1341.83C652.52 1305.74 652.52 1017.07 652.52 980.99C652.47 950.94 642.37 928.35 622.32 913.32C602.22 898.3 582.06 890.79 561.96 890.79ZM227.44 0C102.06 0 0.31 101.49 0 226.92C0 413.64 0 1907.36 0 2094.08C0.31 2219.51 102.06 2321 227.44 2321C414.05 2321 1906.95 2321 2093.56 2321C2218.99 2321 2320.69 2219.51 2321 2094.08C2321 1907.36 2321 413.64 2321 226.92C2320.69 101.49 2218.94 0 2093.56 0C1720.34 0 414.05 0 227.44 0ZM798.88 1342.81C798.88 1440.26 738.73 1587.92 548.34 1587.61C532.31 1587.61 452.18 1587.61 307.95 1587.61L307.95 730.39C455.23 730.39 537.05 730.39 553.41 730.39C737.02 730.39 798.78 877.84 798.83 975.34C798.84 1048.83 798.87 1269.32 798.88 1342.81ZM1320.48 883.48L1044.45 883.48L1044.45 1082.53L1213.19 1082.53L1213.19 1235.73L1044.45 1235.73L1044.45 1434.72L1320.54 1434.72L1320.54 1587.92C1127.25 1587.92 1019.87 1587.92 998.39 1587.92C940.57 1589.42 892.5 1543.72 891.05 1485.91C891.05 1421.09 891.05 902.55 891.05 837.74C889.65 779.97 935.39 732 993.16 730.55C1014.99 730.55 1124.11 730.55 1320.54 730.55L1320.48 883.48ZM1857.42 1480.78C1789.04 1640.09 1666.51 1608.38 1611.64 1480.78C1598.34 1430.77 1531.8 1180.71 1412.03 730.6L1580.77 730.6L1734.69 1319.76L1887.88 730.6L2056.68 730.6C1950.41 1130.69 1883.99 1380.75 1857.42 1480.78Z" id="a1r8C4idfo"></path></defs><g><g><g><use xlink:href="#a1r8C4idfo" opacity="1" fill="#2bbc8a" fill-opacity="1"></use><g><use xlink:href="#a1r8C4idfo" opacity="1" fill-opacity="0" stroke="#000000" stroke-width="1" stroke-opacity="0"></use></g></g></g></g></svg>